<svg width="128" height="128" viewBox="0 0 128 128" fill="none" xmlns="http://www.w3.org/2000/svg">
<rect width="128" height="128" rx="39" fill="white"/>
<path fill-rule="evenodd" clip-rule="evenodd" d="M34.1333 0C15.282 0 0 15.282 0 34.1333V93.8667C0 112.718 15.282 128 34.1333 128H93.8667C112.718 128 128 112.718 128 93.8667V34.1333C128 15.282 112.718 0 93.8667 0H34.1333ZM55.4667 64C55.4667 65.2096 54.9534 66.3622 54.0542 67.1714L32.7209 86.3714C30.9694 87.9477 28.2716 87.8059 26.6953 86.0542C25.1189 84.3027 25.261 81.6049 27.0125 80.0286L44.822 64L27.0125 47.9714C25.261 46.3951 25.1189 43.6973 26.6953 41.9458C28.2716 40.1943 30.9694 40.0523 32.7209 41.6286L54.0542 60.8286C54.9534 61.6378 55.4667 62.7904 55.4667 64ZM98.1333 87.4667C100.49 87.4667 102.4 85.5565 102.4 83.2C102.4 80.8435 100.49 78.9333 98.1333 78.9333H64C61.6435 78.9333 59.7333 80.8435 59.7333 83.2C59.7333 85.5565 61.6435 87.4667 64 87.4667H98.1333Z" fill="url(#paint0_linear_27_3)"/>
<defs>
<linearGradient id="paint0_linear_27_3" x1="163.507" y1="153.862" x2="49.9733" y2="21.0411" gradientUnits="userSpaceOnUse">
<stop offset="0.00265844" stop-color="#FF37DF"/>
<stop offset="1" stop-color="#6E00FF"/>
</linearGradient>
</defs>
</svg>
